<?xml version="1.0" standalone="no"?>
<!DOCTYPE svg PUBLIC "-//W3C//DTD SVG 20010904//EN"
 "http://www.w3.org/TR/2001/REC-SVG-20010904/DTD/svg10.dtd">
<svg version="1.0" xmlns="http://www.w3.org/2000/svg"
 width="192.000000pt" height="192.000000pt" viewBox="0 0 192.000000 192.000000"
 preserveAspectRatio="xMidYMid meet">
<metadata>
Created by potrace 1.15, written by Peter Selinger 2001-2017
</metadata>
<g transform="translate(0.000000,192.000000) scale(0.100000,-0.100000)"
fill="#54ACF8" stroke="none">
<path d="M859 1614 c-46 -36 -85 -69 -87 -74 -3 -8 157 -140 179 -148 7 -3
124 85 178 133 11 10 -3 26 -75 84 -49 39 -94 71 -100 71 -6 0 -49 -30 -95
-66z"/>
<path d="M460 1293 c-30 -25 -56 -48 -57 -52 -2 -6 488 -394 531 -420 22 -14
33 -7 282 190 142 112 265 210 273 217 14 11 11 17 -24 48 -86 77 -58 87 -296
-101 -116 -91 -216 -164 -222 -162 -7 3 -104 77 -216 166 -112 89 -206 161
-210 160 -3 0 -31 -21 -61 -46z"/>
<path d="M100 1004 c-30 -25 -56 -47 -58 -49 -7 -6 894 -709 909 -709 17 -1
908 692 909 706 0 8 -109 98 -119 98 -4 0 -182 -138 -395 -307 -360 -284 -390
-305 -410 -293 -12 7 -188 145 -393 307 -205 161 -376 293 -380 293 -4 0 -33
-21 -63 -46z"/>
</g>
</svg>
